# xmcd
#
# Track frame offsets:
#	150
#	16089
#	29016
#	42541
#	55935
#	70485
#	83019
#	95774
#	109028
#	122675
#	134227
#	147467
#
# Disc length: 2132 seconds
#
# Revision: 0
# Processed by: cddbd v1.5.2PL0 Copyright (c) Steve Scherf et al.
# Submitted via: EasyCDDAExtractor 16.0.6.1
#
DISCID=b408520c
DTITLE=Συλλογικός δίσκος - Κάτω στα Λεμονάδικα-Πίστα 12
DYEAR=1900
DGENRE=Ρεμπέτικη
TTITLE0=Δημητρίου Φούλη - Βασανιστήρια μού έκανες πολλά [Σ.Τζουανάκου-Ε.Παπαγι
TTITLE0=αννοπούλου]
TTITLE1=Γιουλάκης Νίκος - Πέντε Έλληνες στον Άδη [Γ. Παπαϊωάννου]
TTITLE2=Ζαγοραίος Σπύρος - Μέσ' της Πεντέλης τα βουνά [Σ. Παγιουμτζή]
TTITLE3=Μπίνης Τάκης - Ζούλα, αβέρτα, φανερά [Τ. Μπίνη]
TTITLE4=Χρηστάκης - Η γάτα [Ν. Μάθεση]
TTITLE5=Χρυσάφη Άννα - Πώς θα περάσει η βραδιά [Γ. Παπαϊωάννου]
TTITLE6=Παγιουμτζής Στράτος - Λεβέντης από κούνια [Σ. Παγιουμτζή]
TTITLE7=Τσαουσάκης Πρόδρομος - Μοβόρισσα [Π. Τσαουσάκη]
TTITLE8=Ζακυνθηνάκης Ανδρέας - Το τελευταίο βράδυ μου [Σ. Καζαντζίδη]
TTITLE9=Νικολαΐδης Απόστολος - Τα Λεμονάδικα [Β. Παπάζογλου]
TTITLE10=Μπίνης Τάκης - Ό,τι θέλεις [Τ. Μπίνη]
TTITLE11=Βαμβακάρης Μάρκος - Εγώ είμαι το θύμα σου [Μ. Βαμβακάρη]
EXTD=
EXTT0=
EXTT1=
EXTT2=
EXTT3=
EXTT4=
EXTT5=
EXTT6=
EXTT7=
EXTT8=
EXTT9=
EXTT10=
EXTT11=
PLAYORDER=
